<svg id="visual" viewBox="0 0 900 600" width="900" height="600" xmlns="http://www.w3.org/2000/svg" xmlns:xlink="http://www.w3.org/1999/xlink" version="1.1"><g stroke-width="1" stroke-linejoin="bevel"><path d="M577 323L550 0L314 287Z" fill="#fafafa" stroke="#fafafa"></path><path d="M550 0L281 0L314 287Z" fill="#ffffff" stroke="#ffffff"></path><path d="M314 287L563 600L577 323Z" fill="#fefefe" stroke="#fefefe"></path><path d="M900 600L900 266L577 323Z" fill="#fefefe" stroke="#fefefe"></path><path d="M577 323L900 266L550 0Z" fill="#f8f8f8" stroke="#f8f8f8"></path><path d="M0 600L285 600L314 287Z" fill="#fdfdfd" stroke="#fdfdfd"></path><path d="M314 287L285 600L563 600Z" fill="#fdfdfd" stroke="#fdfdfd"></path><path d="M900 266L900 0L550 0Z" fill="#fbfbfb" stroke="#fbfbfb"></path><path d="M281 0L0 256L314 287Z" fill="#fcfcfc" stroke="#fcfcfc"></path><path d="M281 0L0 0L0 256Z" fill="#fdfdfd" stroke="#fdfdfd"></path><path d="M563 600L900 600L577 323Z" fill="#f8f8f8" stroke="#f8f8f8"></path><path d="M0 256L0 600L314 287Z" fill="#f7f7f7" stroke="#f7f7f7"></path></g></svg>